<?xml version="1.0" encoding="utf-8"?>
<!-- Generator: Adobe Illustrator 16.0.0, SVG Export Plug-In . SVG Version: 6.00 Build 0)  -->
<!DOCTYPE svg PUBLIC "-//W3C//DTD SVG 1.1//EN" "http://www.w3.org/Graphics/SVG/1.1/DTD/svg11.dtd">
<svg version="1.1" xmlns="http://www.w3.org/2000/svg" xmlns:xlink="http://www.w3.org/1999/xlink" x="0px" y="0px"
	 width="39.652px" height="39.653px" viewBox="0 0 39.652 39.653" enable-background="new 0 0 39.652 39.653" xml:space="preserve">
<g id="Layer_1">
</g>
<g id="Layer_3">
	<path d="M21.302,29.607v-9.77h2.715c0,0,0.255-1.576,0.376-3.299c-0.351,0-3.075,0-3.075,0s0-1.912,0-2.247
		c0-0.337,0.441-0.788,0.876-0.788c0.436,0,1.354,0,2.205,0c0-0.447,0-1.995,0-3.422c-1.137,0-2.426,0-2.998,0
		c-4.245,0-4.144,3.292-4.144,3.783c0,0.491,0,2.686,0,2.686h-1.969v3.288h1.969v9.77H21.302z"/>
	<path fill="#1E1E1C" d="M19.826,0C8.894,0,0,8.894,0,19.827c0,10.932,8.894,19.827,19.826,19.827
		c10.933,0,19.826-8.895,19.826-19.827C39.652,8.894,30.758,0,19.826,0z M19.826,38.361c-10.22,0-18.534-8.315-18.534-18.535
		c0-10.22,8.314-18.535,18.534-18.535c10.22,0,18.533,8.315,18.533,18.535C38.359,30.046,30.045,38.361,19.826,38.361z"/>
</g>
</svg>
