<?xml version="1.0" encoding="utf-8"?>
<!-- Generator: Adobe Illustrator 16.0.0, SVG Export Plug-In . SVG Version: 6.00 Build 0)  -->
<!DOCTYPE svg PUBLIC "-//W3C//DTD SVG 1.1//EN" "http://www.w3.org/Graphics/SVG/1.1/DTD/svg11.dtd">
<svg version="1.1" id="symbols" xmlns="http://www.w3.org/2000/svg" xmlns:xlink="http://www.w3.org/1999/xlink" x="0px" y="0px"
	 width="13.766px" height="12.598px" viewBox="0 0 13.766 12.598" enable-background="new 0 0 13.766 12.598" xml:space="preserve">
<path fill-rule="evenodd" clip-rule="evenodd" fill="#ED1C24" d="M10.425,0.074c-0.84,0-1.609,0.212-2.213,0.673
	c-0.24,0.208-1.121,0.89-1.33,1.708C6.681,1.665,5.853,1.009,5.58,0.771C4.973,0.295,4.192,0.074,3.341,0.074
	c-1.943,0-3.276,1.454-3.276,3.397c0,0.506,0.108,0.988,0.301,1.423C0.77,5.849,1.448,6.924,3.49,8.46
	c2.406,1.81,3.392,4.137,3.392,4.137s0.988-2.327,3.394-4.137c2.042-1.537,2.72-2.611,3.125-3.567
	c0.193-0.435,0.301-0.917,0.301-1.423C13.701,1.527,12.368,0.074,10.425,0.074z"/>
</svg>
