<?xml version="1.0" encoding="utf-8"?>
<!-- Generator: Adobe Illustrator 16.0.0, SVG Export Plug-In . SVG Version: 6.00 Build 0)  -->
<!DOCTYPE svg PUBLIC "-//W3C//DTD SVG 1.1//EN" "http://www.w3.org/Graphics/SVG/1.1/DTD/svg11.dtd">
<svg version="1.1" id="symbols" xmlns="http://www.w3.org/2000/svg" xmlns:xlink="http://www.w3.org/1999/xlink" x="0px" y="0px"
	 width="13.766px" height="12.598px" viewBox="0 0 13.766 12.598" enable-background="new 0 0 13.766 12.598" xml:space="preserve">
<path fill-rule="evenodd" clip-rule="evenodd" d="M10.751,4.37c-0.569,0-1.091,0.198-1.502,0.529c0,0-0.039,0.033-0.051,0.042
	C8.83,5.267,8.268,5.778,7.439,6.095C7.733,5.073,8.34,4.409,8.708,3.992C8.719,3.982,8.75,3.941,8.75,3.941
	c0.332-0.412,0.531-0.934,0.531-1.503c0-1.324-1.073-2.399-2.398-2.399l0,0c-1.325,0-2.398,1.075-2.398,2.399
	c0,0.57,0.199,1.091,0.531,1.503c0,0,0.031,0.041,0.042,0.051c0.367,0.417,0.974,1.081,1.268,2.103
	c-0.83-0.317-1.39-0.829-1.759-1.153C4.555,4.933,4.516,4.899,4.516,4.899C4.105,4.568,3.583,4.37,3.014,4.37
	c-1.325,0-2.398,1.072-2.398,2.398l0,0c0,1.324,1.074,2.398,2.398,2.398c0.568,0,1.091-0.201,1.502-0.532
	c0,0,0.039-0.033,0.051-0.042c0.371-0.325,0.935-0.837,1.77-1.157c-0.412,3.292-1.474,4.927-1.559,5.052
	c0.454-0.144,1.208-0.32,2.189-0.32c0.919,0,1.587,0.155,2.001,0.294c-0.165-0.257-1.147-1.887-1.54-5.026
	c0.836,0.319,1.399,0.832,1.77,1.157C9.211,8.604,9.25,8.635,9.25,8.635c0.411,0.331,0.933,0.532,1.502,0.532
	c1.325,0,2.398-1.074,2.398-2.398l0,0C13.15,5.442,12.076,4.37,10.751,4.37z"/>
</svg>
