<?xml version="1.0" encoding="utf-8"?>
<!-- Generator: Adobe Illustrator 16.0.0, SVG Export Plug-In . SVG Version: 6.00 Build 0)  -->
<!DOCTYPE svg PUBLIC "-//W3C//DTD SVG 1.1//EN" "http://www.w3.org/Graphics/SVG/1.1/DTD/svg11.dtd">
<svg version="1.1" id="symbols" xmlns="http://www.w3.org/2000/svg" xmlns:xlink="http://www.w3.org/1999/xlink" x="0px" y="0px"
	 width="13.766px" height="12.598px" viewBox="0 0 13.766 12.598" enable-background="new 0 0 13.766 12.598" xml:space="preserve">
<path fill-rule="evenodd" clip-rule="evenodd" d="M12.318,6.218c-0.338-0.796-0.903-1.594-2.606-2.875
	c-2.005-1.508-2.83-3.248-2.83-3.248s-0.823,1.74-2.83,3.248C2.35,4.624,1.786,5.422,1.448,6.218
	C1.286,6.581,1.196,6.982,1.196,7.405c0,1.621,1.112,2.833,2.733,2.833c0.846,0,1.607-0.258,2.144-0.832
	c-0.456,1.992-1.109,3.001-1.174,3.097c0.426-0.137,1.133-0.302,2.052-0.302c0.862,0,1.488,0.146,1.877,0.276
	c-0.123-0.191-0.734-1.206-1.164-3.103c0.536,0.592,1.309,0.864,2.171,0.864c1.621,0,2.733-1.212,2.733-2.833
	C12.569,6.982,12.479,6.581,12.318,6.218z"/>
</svg>
