<?xml version="1.0" encoding="utf-8"?>
<!-- Generator: Adobe Illustrator 16.0.0, SVG Export Plug-In . SVG Version: 6.00 Build 0)  -->
<!DOCTYPE svg PUBLIC "-//W3C//DTD SVG 1.1//EN" "http://www.w3.org/Graphics/SVG/1.1/DTD/svg11.dtd">
<svg version="1.1" xmlns="http://www.w3.org/2000/svg" xmlns:xlink="http://www.w3.org/1999/xlink" x="0px" y="0px"
	 width="26.296px" height="26.297px" viewBox="-436.085 229.193 26.296 26.297"
	 enable-background="new -436.085 229.193 26.296 26.297" xml:space="preserve">
<g id="Layer_1" display="none">
	<path display="inline" d="M-423.004,229.193c-5.279,0-9.828,3.142-11.906,7.648h-0.015v0.03c-0.76,1.659-1.195,3.496-1.195,5.438
		c0,7.23,5.884,13.115,13.116,13.115s13.116-5.885,13.116-13.115C-409.888,235.077-415.772,229.193-423.004,229.193z
		 M-418.637,234.872h3.25v3.25h-3.25V234.872z M-425.504,240.856c0.557-0.771,1.461-1.275,2.482-1.275s1.926,0.505,2.481,1.275
		c0.363,0.504,0.581,1.118,0.581,1.785c0,1.688-1.375,3.061-3.062,3.061s-3.061-1.372-3.061-3.061
		C-426.082,241.974-425.866,241.36-425.504,240.856z M-423.004,253.983c-6.437,0-11.674-5.238-11.674-11.674
		c0-0.503,0.042-0.995,0.104-1.481h2.856v0.028h1.694h1.216h1.381c-0.225,0.554-0.351,1.155-0.351,1.785
		c0,2.622,2.134,4.757,4.756,4.757s4.756-2.135,4.756-4.757c0-0.63-0.127-1.231-0.351-1.785h1.779h0.818h1.695v-0.028h2.891
		c0.062,0.486,0.104,0.979,0.104,1.481C-411.33,248.745-416.567,253.983-423.004,253.983z"/>
</g>
<g id="Layer_2">
	<path fill="#1D1D1B" d="M-422.937,229.193c-7.25,0-13.148,5.898-13.148,13.148s5.898,13.148,13.148,13.148
		s13.148-5.898,13.148-13.148S-415.687,229.193-422.937,229.193z M-422.937,254.634c-6.778,0-12.292-5.515-12.292-12.292
		s5.514-12.292,12.292-12.292s12.292,5.515,12.292,12.292S-416.159,254.634-422.937,254.634z"/>
	<path fill="#1D1D1B" d="M-422.937,232.751c-5.289,0-9.591,4.303-9.591,9.591h0.578h0.922h3.42c0,2.576,2.096,4.672,4.672,4.672
		s4.672-2.096,4.672-4.672h3.42h0.921h0.579C-413.344,237.053-417.648,232.751-422.937,232.751z M-422.937,245.513
		c-1.749,0-3.172-1.423-3.172-3.172s1.423-3.172,3.172-3.172s3.172,1.423,3.172,3.172S-421.188,245.513-422.937,245.513z
		 M-416.02,240.38h-2.673v-2.673h2.673V240.38z"/>
</g>
</svg>
