<?xml version="1.0" encoding="utf-8"?>
<!-- Generator: Adobe Illustrator 16.0.0, SVG Export Plug-In . SVG Version: 6.00 Build 0)  -->
<!DOCTYPE svg PUBLIC "-//W3C//DTD SVG 1.1//EN" "http://www.w3.org/Graphics/SVG/1.1/DTD/svg11.dtd">
<svg version="1.1" xmlns="http://www.w3.org/2000/svg" xmlns:xlink="http://www.w3.org/1999/xlink" x="0px" y="0px"
	 width="39.652px" height="39.653px" viewBox="0 0 39.652 39.653" enable-background="new 0 0 39.652 39.653" xml:space="preserve">
<g id="Layer_1">
	<path fill="#ffffff" d="M19.826,0C8.894,0,0,8.894,0,19.827c0,10.932,8.894,19.827,19.826,19.827
		c10.933,0,19.826-8.895,19.826-19.827C39.652,8.894,30.758,0,19.826,0z M19.826,38.361c-10.22,0-18.534-8.315-18.534-18.535
		c0-10.22,8.314-18.535,18.534-18.535c10.22,0,18.533,8.315,18.533,18.535C38.359,30.046,30.045,38.361,19.826,38.361z"/>
</g>
<g id="Layer_2">
	<path fill="#ffffff" d="M29.77,14.312c-0.704,0.312-1.461,0.522-2.254,0.617c0.811-0.485,1.432-1.255,1.726-2.171
		c-0.759,0.45-1.599,0.776-2.492,0.953c-0.716-0.763-1.735-1.24-2.864-1.24c-2.167,0-3.925,1.757-3.925,3.924
		c0,0.307,0.035,0.607,0.102,0.894c-3.261-0.164-6.152-1.726-8.088-4.1c-0.338,0.58-0.531,1.254-0.531,1.973
		c0,1.361,0.693,2.562,1.746,3.266c-0.644-0.02-1.249-0.196-1.777-0.49c0,0.016,0,0.033,0,0.049c0,1.901,1.353,3.487,3.147,3.848
		c-0.33,0.089-0.677,0.138-1.034,0.138c-0.253,0-0.499-0.024-0.738-0.07c0.499,1.559,1.948,2.693,3.666,2.725
		c-1.344,1.053-3.035,1.68-4.874,1.68c-0.316,0-0.629-0.019-0.937-0.055c1.737,1.114,3.8,1.764,6.016,1.764
		c7.218,0,11.166-5.98,11.166-11.166c0-0.169-0.005-0.339-0.012-0.507C28.579,15.79,29.244,15.098,29.77,14.312z"/>
</g>
</svg>
